<svg width="800px" height="800px" viewBox="0 0 16 16" fill="none" xmlns="http://www.w3.org/2000/svg" xmlns:xlink="http://www.w3.org/1999/xlink">
<path fill-rule="evenodd" clip-rule="evenodd" d="M8 16L3.54223 12.3383C1.93278 11.0162 1 9.04287 1 6.96005C1 3.11612 4.15607 0 8 0C11.8439 0 15 3.11612 15 6.96005C15 9.04287 14.0672 11.0162 12.4578 12.3383L8 16ZM3 6H5C6.10457 6 7 6.89543 7 8V9L3 7.5V6ZM11 6C9.89543 6 9 6.89543 9 8V9L13 7.5V6H11Z" fill="#000000"/>
		<defs>
                <g id="a1">
                        <circle cx="50" cy="50" r="40" stroke="green" stroke-width="4" fill="yellow" />
                </g>
        </defs>
		<defs>
                <g id="a2">
                 <use x="5" y="5" xlink:href="#a1" />
                 <use x="10" y="10" xlink:href="#a1" />
                 <use x="30" y="50" xlink:href="#a1" />
                 <use x="50" y="50" xlink:href="#a1" />
                 <use x="55" y="50" xlink:href="#a1" />
                 <use x="60" y="40" xlink:href="#a1" />
                 <use x="57" y="50" xlink:href="#a1" />
                 <use x="70" y="70" xlink:href="#a1" />
                 <use x="80" y="50" xlink:href="#a1" />
                 <use x="59" y="90" xlink:href="#a1" />
                 <use x="90" y="90" xlink:href="#a1" />
                 <use x="100" y="50" xlink:href="#a1" />
                </g>
        </defs>
        <defs>
                <g id="a3">
                 <use x="5" y="5" xlink:href="#a2" />
                 <use x="10" y="10" xlink:href="#a2" />
                 <use x="30" y="50" xlink:href="#a2" />
                 <use x="50" y="50" xlink:href="#a2" />
                 <use x="55" y="50" xlink:href="#a2" />
                 <use x="60" y="40" xlink:href="#a2" />
                 <use x="57" y="50" xlink:href="#a2" />
                 <use x="70" y="70" xlink:href="#a2" />
                 <use x="80" y="50" xlink:href="#a2" />
                 <use x="59" y="90" xlink:href="#a2" />
                 <use x="90" y="90" xlink:href="#a2" />
                 <use x="100" y="50" xlink:href="#a2" />
                </g>
        </defs>

        <defs>
                <g id="a4">
            <use x="5" y="5" xlink:href="#a3" />
            <use x="15" y="15" xlink:href="#a3" />
            <use x="30" y="30" xlink:href="#a3" />
            <use x="50" y="40" xlink:href="#a3" />
            <use x="60" y="60" xlink:href="#a3" />
            <use x="80" y="80" xlink:href="#a3" />
            <use x="95" y="100" xlink:href="#a3" />
            <use x="110" y="120" xlink:href="#a3" />
          </g>
        </defs>

        <defs>
          <!-- Group a5 -->
          <g id="a5">
            <use x="10" y="10" xlink:href="#a4" />
            <use x="20" y="30" xlink:href="#a4" />
            <use x="40" y="45" xlink:href="#a4" />
            <use x="60" y="70" xlink:href="#a4" />
            <use x="80" y="90" xlink:href="#a4" />
            <use x="100" y="120" xlink:href="#a4" />
            <use x="120" y="140" xlink:href="#a4" />
            <use x="140" y="160" xlink:href="#a4" />
            <use x="160" y="180" xlink:href="#a4" />
          </g>
        </defs>

        <defs>
          <!-- Group a6 -->
          <g id="a6">
            <use x="5" y="5" xlink:href="#a5" />
            <use x="25" y="35" xlink:href="#a5" />
            <use x="45" y="55" xlink:href="#a5" />
            <use x="65" y="85" xlink:href="#a5" />
            <use x="90" y="110" xlink:href="#a5" />
            <use x="115" y="140" xlink:href="#a5" />
            <use x="140" y="170" xlink:href="#a5" />
            <use x="160" y="190" xlink:href="#a5" />
          </g>
        </defs>

        <defs>
          <!-- Group a7 -->
          <g id="a7">
            <use x="5" y="5" xlink:href="#a6" />
            <use x="25" y="35" xlink:href="#a6" />
            <use x="45" y="55" xlink:href="#a6" />
            <use x="65" y="85" xlink:href="#a6" />
            <use x="90" y="110" xlink:href="#a6" />
            <use x="115" y="140" xlink:href="#a6" />
            <use x="140" y="170" xlink:href="#a6" />
            <use x="160" y="190" xlink:href="#a6" />
          </g>
        </defs>

        <defs>
          <!-- Group a8 -->
          <g id="a8">
            <use x="10" y="10" xlink:href="#a7" />
            <use x="30" y="60" xlink:href="#a7" />
            <use x="55" y="95" xlink:href="#a7" />
            <use x="85" y="130" xlink:href="#a7" />
            <use x="110" y="170" xlink:href="#a7" />
            <use x="140" y="200" xlink:href="#a7" />
            <use x="160" y="230" xlink:href="#a7" />
            <use x="190" y="260" xlink:href="#a7" />
            <use x="220" y="290" xlink:href="#a7" />
          </g>
        </defs>

        <defs>
          <!-- Group a9 -->
          <g id="a9">
            <use x="5" y="5" xlink:href="#a8" />
            <use x="20" y="45" xlink:href="#a8" />
            <use x="40" y="75" xlink:href="#a8" />
            <use x="60" y="110" xlink:href="#a8" />
            <use x="80" y="150" xlink:href="#a8" />
            <use x="100" y="180" xlink:href="#a8" />
            <use x="130" y="220" xlink:href="#a8" />
            <use x="150" y="250" xlink:href="#a8" />
            <use x="180" y="290" xlink:href="#a8" />
          </g>
        </defs>

        <defs>
          <!-- Group a10 -->
          <g id="a10">
            <use x="10" y="10" xlink:href="#a9" />
            <use x="30" y="60" xlink:href="#a9" />
            <use x="55" y="100" xlink:href="#a9" />
            <use x="80" y="140" xlink:href="#a9" />
            <use x="110" y="180" xlink:href="#a9" />
            <use x="140" y="220" xlink:href="#a9" />
            <use x="160" y="260" xlink:href="#a9" />
            <use x="190" y="300" xlink:href="#a9" />
            <use x="220" y="340" xlink:href="#a9" />
          </g>
          </defs>

        <defs>
          <!-- Group a11 -->
          <g id="a11">
            <use x="10" y="10" xlink:href="#a10" />
            <use x="25" y="30" xlink:href="#a10" />
            <use x="45" y="50" xlink:href="#a10" />
            <use x="65" y="70" xlink:href="#a10" />
            <use x="85" y="90" xlink:href="#a10" />
            <use x="105" y="120" xlink:href="#a10" />
            <use x="125" y="140" xlink:href="#a10" />
            <use x="145" y="160" xlink:href="#a10" />
            <use x="165" y="180" xlink:href="#a10" />
          </g>
        </defs>

        <defs>
          <!-- Group a12 -->
          <g id="a12">
            <use x="10" y="10" xlink:href="#a11" />
            <use x="30" y="40" xlink:href="#a11" />
            <use x="50" y="70" xlink:href="#a11" />
            <use x="75" y="100" xlink:href="#a11" />
            <use x="100" y="130" xlink:href="#a11" />
            <use x="120" y="160" xlink:href="#a11" />
            <use x="140" y="190" xlink:href="#a11" />
            <use x="160" y="220" xlink:href="#a11" />
            <use x="180" y="250" xlink:href="#a11" />
          </g>
        </defs>

        <defs>
          <!-- Group a13 -->
          <g id="a13">
            <use x="10" y="10" xlink:href="#a12" />
            <use x="35" y="50" xlink:href="#a12" />
            <use x="60" y="90" xlink:href="#a12" />
            <use x="85" y="130" xlink:href="#a12" />
            <use x="110" y="170" xlink:href="#a12" />
            <use x="135" y="210" xlink:href="#a12" />
            <use x="160" y="250" xlink:href="#a12" />
            <use x="185" y="290" xlink:href="#a12" />
            <use x="210" y="320" xlink:href="#a12" />
          </g>
        </defs>

        <defs>
          <!-- Group a14 -->
          <g id="a14">
            <use x="15" y="15" xlink:href="#a13" />
            <use x="40" y="60" xlink:href="#a13" />
            <use x="65" y="105" xlink:href="#a13" />
            <use x="90" y="145" xlink:href="#a13" />
            <use x="115" y="185" xlink:href="#a13" />
            <use x="140" y="225" xlink:href="#a13" />
            <use x="165" y="265" xlink:href="#a13" />
            <use x="190" y="305" xlink:href="#a13" />
            <use x="215" y="335" xlink:href="#a13" />
          </g>
        </defs>

        <defs>
          <!-- Group a15 -->
          <g id="a15">
            <use x="10" y="10" xlink:href="#a14" />
            <use x="30" y="60" xlink:href="#a14" />
            <use x="55" y="110" xlink:href="#a14" />
            <use x="80" y="160" xlink:href="#a14" />
            <use x="110" y="210" xlink:href="#a14" />
            <use x="140" y="260" xlink:href="#a14" />
            <use x="170" y="310" xlink:href="#a14" />
            <use x="200" y="360" xlink:href="#a14" />
            <use x="230" y="410" xlink:href="#a14" />
          </g>
        </defs>

        <defs>
          <!-- Group a16 -->
          <g id="a16">
            <use x="20" y="20" xlink:href="#a15" />
            <use x="45" y="75" xlink:href="#a15" />
            <use x="70" y="130" xlink:href="#a15" />
            <use x="95" y="185" xlink:href="#a15" />
            <use x="120" y="240" xlink:href="#a15" />
            <use x="150" y="290" xlink:href="#a15" />
            <use x="180" y="340" xlink:href="#a15" />
            <use x="210" y="390" xlink:href="#a15" />
            <use x="240" y="440" xlink:href="#a15" />
          </g>
        </defs>

        <defs>
          <!-- Group a17 -->
          <g id="a17">
            <use x="10" y="10" xlink:href="#a16" />
            <use x="35" y="60" xlink:href="#a16" />
            <use x="60" y="110" xlink:href="#a16" />
            <use x="90" y="160" xlink:href="#a16" />
            <use x="120" y="210" xlink:href="#a16" />
            <use x="150" y="260" xlink:href="#a16" />
            <use x="180" y="310" xlink:href="#a16" />
            <use x="210" y="360" xlink:href="#a16" />
            <use x="240" y="410" xlink:href="#a16" />
          </g>
        </defs>

        <defs>
          <!-- Group a18 -->
          <g id="a18">
            <use x="15" y="15" xlink:href="#a17" />
            <use x="40" y="70" xlink:href="#a17" />
            <use x="65" y="120" xlink:href="#a17" />
            <use x="90" y="170" xlink:href="#a17" />
            <use x="120" y="220" xlink:href="#a17" />
            <use x="150" y="270" xlink:href="#a17" />
            <use x="180" y="320" xlink:href="#a17" />
            <use x="210" y="370" xlink:href="#a17" />
            <use x="240" y="420" xlink:href="#a17" />
          </g>
        </defs>

        <defs>
          <!-- Group a19 -->
          <g id="a19">
            <use x="20" y="20" xlink:href="#a18" />
            <use x="50" y="80" xlink:href="#a18" />
            <use x="80" y="140" xlink:href="#a18" />
            <use x="110" y="190" xlink:href="#a18" />
            <use x="140" y="240" xlink:href="#a18" />
            <use x="170" y="290" xlink:href="#a18" />
            <use x="200" y="340" xlink:href="#a18" />
            <use x="230" y="390" xlink:href="#a18" />
            <use x="260" y="440" xlink:href="#a18" />
          </g>
        </defs>

        <defs>
          <!-- Group a20 -->
          <g id="a20">
            <use x="10" y="10" xlink:href="#a19" />
            <use x="35" y="50" xlink:href="#a19" />
            <use x="60" y="100" xlink:href="#a19" />
            <use x="90" y="150" xlink:href="#a19" />
            <use x="120" y="200" xlink:href="#a19" />
            <use x="260" y="440" xlink:href="#a19" />
          </g>
        </defs>
</svg>