<svg xmlns="http://www.w3.org/2000/svg" width="166" height="32" fill="none" viewBox="0 0 166 32"><g clip-path="url(#clip0_2600_52409)"><path fill="#FF2400" fill-rule="evenodd" d="M10.096 16.704a5.935 5.935 0 0 0 11.837-.607 5.933 5.933 0 1 0-11.867 0c0 .204.01.407.03.607ZM0 16a16 16 0 1 1 32 0 16 16 0 0 1-32 0Z" clip-rule="evenodd"/><path fill="#fff" d="M51.817 15.892c0 4.866-3.377 6.987-6.565 6.987-3.567 0-6.318-2.61-6.318-6.77 0-4.403 2.886-6.986 6.536-6.986 3.787 0 6.347 2.746 6.347 6.77Zm-10.46.136c0 2.882 1.663 5.057 4.005 5.057 2.288 0 4.004-2.148 4.004-5.11 0-2.23-1.117-5.058-3.95-5.058s-4.058 2.61-4.058 5.11ZM65.874 18.991c0 1.36.027 2.558.109 3.589h-2.125l-.136-2.148h-.055a4.956 4.956 0 0 1-4.357 2.447c-2.071 0-4.55-1.141-4.55-5.765V9.422h2.398v7.286c0 2.501.763 4.186 2.942 4.186a3.471 3.471 0 0 0 3.16-2.175c.144-.391.218-.805.217-1.223V9.422h2.397v9.57ZM78.165 20.133c.95.594 2.04.923 3.16.954 1.743 0 2.562-.87 2.562-1.957 0-1.142-.681-1.768-2.451-2.42-2.37-.843-3.487-2.148-3.487-3.724 0-2.121 1.716-3.861 4.549-3.861a6.592 6.592 0 0 1 3.241.816l-.599 1.74a5.133 5.133 0 0 0-2.697-.762c-1.416 0-2.206.816-2.206 1.795 0 1.087.79 1.576 2.506 2.229 2.288.87 3.459 2.011 3.459 3.97 0 2.31-1.798 3.969-4.93 3.969a7.513 7.513 0 0 1-3.705-.926l.598-1.823ZM101.592 20.133c.949.593 2.04.923 3.16.954 1.742 0 2.562-.87 2.562-1.957 0-1.142-.681-1.768-2.451-2.42-2.37-.843-3.486-2.148-3.486-3.724 0-2.121 1.715-3.861 4.548-3.861a6.591 6.591 0 0 1 3.241.816l-.599 1.74a5.13 5.13 0 0 0-2.696-.762c-1.417 0-2.207.816-2.207 1.795 0 1.087.79 1.576 2.506 2.229 2.288.87 3.459 2.011 3.459 3.97 0 2.31-1.798 3.969-4.93 3.969a7.517 7.517 0 0 1-3.704-.926l.597-1.823ZM134.68 12.983c0-1.36-.027-2.475-.108-3.56h2.096l.109 2.119h.082a4.551 4.551 0 0 1 4.14-2.42 3.901 3.901 0 0 1 3.732 2.638h.054a5.436 5.436 0 0 1 1.471-1.713 4.511 4.511 0 0 1 2.915-.924c1.743 0 4.33 1.142 4.33 5.71v7.747h-2.342v-7.45c0-2.528-.926-4.05-2.86-4.05a3.106 3.106 0 0 0-2.833 2.175c-.124.387-.189.79-.19 1.196v8.13h-2.343v-7.885c0-2.094-.926-3.616-2.751-3.616-1.498 0-2.588 1.197-2.969 2.393a3.285 3.285 0 0 0-.19 1.17v7.937h-2.343v-9.597ZM157.038 20.133c.949.593 2.04.923 3.16.954 1.742 0 2.562-.87 2.562-1.957 0-1.142-.681-1.768-2.451-2.42-2.373-.845-3.488-2.15-3.488-3.727 0-2.12 1.715-3.86 4.548-3.86a6.59 6.59 0 0 1 3.241.816l-.599 1.74a5.13 5.13 0 0 0-2.696-.762c-1.417 0-2.207.815-2.207 1.795 0 1.087.79 1.576 2.506 2.229 2.286.87 3.459 2.013 3.459 3.969 0 2.31-1.799 3.97-4.93 3.97a7.52 7.52 0 0 1-3.705-.926l.6-1.82ZM97.332 9.585l-2.615 7.543c-.326.953-.599 2.196-.844 2.57h-.054c-.217-.374-.545-1.646-.845-2.513l-2.887-7.6h-2.615l4.876 12.043c.085.186.14.383.163.585-.03.194-.094.38-.19.552a7.199 7.199 0 0 1-2.017 2.653 6.304 6.304 0 0 1-2.097 1.163l.652 2a6.556 6.556 0 0 0 2.889-1.541c1.635-1.413 2.806-3.643 4.522-8.157l3.596-9.298h-2.534ZM131.63 16.329c.064-.353.091-.71.082-1.068 0-2.425-1.147-6.189-5.461-6.189-3.85 0-6.198 3.147-6.198 7.126 0 3.978 2.432 6.682 6.498 6.682 1.503.013 2.989-.31 4.35-.947l-.599-1.82c-2.011.816-3.513.979-4.635.766a4.479 4.479 0 0 1-1.303-.49c-1.777-1.088-1.992-3.43-2.016-3.92l-.003-.142 9.285.002Zm-5.571-5.397c2.704 0 3.359 2.398 3.332 3.897h-7.017c.191-1.499 1.255-3.897 3.685-3.897ZM75.209 20.157a3.164 3.164 0 0 1-1.492.593c-.83-.013-1.402-.586-1.402-2.193v-7.475h3.378V9.585h-3.378v-4.83L69.686 6.54v11.877c0 1.55.388 2.719 1.069 3.425.387.405.875.7 1.415.853a3.9 3.9 0 0 0 3.61-.72l-.572-1.819ZM118.018 20.157c-.44.323-.956.527-1.498.593-.829-.013-1.408-.586-1.408-2.193v-7.475h3.379V9.585h-3.379v-4.83l-2.628 1.786v11.877c0 1.55.394 2.719 1.075 3.425.388.405.877.7 1.418.853a3.9 3.9 0 0 0 3.611-.72l-.57-1.819Z"/></g><defs><clipPath id="clip0_2600_52409"><path fill="#fff" d="M0 0h165.333v32H0z"/></clipPath></defs></svg>